<?xml version="1.0" standalone="no"?>
<!DOCTYPE svg PUBLIC "-//W3C//DTD SVG 20010904//EN"
 "http://www.w3.org/TR/2001/REC-SVG-20010904/DTD/svg10.dtd">
<svg version="1.0" xmlns="http://www.w3.org/2000/svg"
 width="736.000000pt" height="736.000000pt" viewBox="0 0 736.000000 736.000000"
 preserveAspectRatio="xMidYMid meet">
<metadata>
Created by potrace 1.14, written by Peter Selinger 2001-2017
</metadata>
<g transform="translate(0.000000,736.000000) scale(0.100000,-0.100000)"
fill="#000000" stroke="none">
<path d="M1990 6926 c-152 -47 -244 -111 -367 -259 -51 -60 -124 -219 -154
-332 -23 -89 -25 -102 -48 -250 -8 -57 -7 -450 2 -525 3 -19 8 -59 12 -89 4
-29 9 -68 11 -85 1 -17 7 -56 13 -86 6 -30 12 -66 15 -80 11 -63 45 -218 53
-245 14 -47 10 -69 -12 -73 -25 -5 -328 -105 -370 -123 -16 -6 -35 -13 -41
-14 -5 -2 -36 -14 -67 -29 -32 -14 -60 -26 -62 -26 -10 0 -217 -102 -287 -141
-40 -23 -104 -62 -141 -88 -38 -25 -76 -50 -85 -56 -36 -22 -138 -113 -204
-180 -94 -96 -203 -268 -223 -351 -3 -11 -11 -45 -19 -76 -29 -118 -14 -279
38 -408 23 -57 89 -176 105 -190 4 -3 19 -22 35 -44 52 -69 140 -150 306 -279
29 -23 171 -107 179 -107 5 0 11 -4 13 -9 4 -12 251 -130 378 -181 114 -46
423 -150 445 -150 23 0 24 -13 9 -80 -12 -56 -21 -98 -40 -185 -4 -21 -11 -54
-18 -95 -3 -14 -8 -43 -11 -65 -3 -22 -8 -53 -10 -70 -3 -16 -7 -42 -9 -57
-21 -132 -28 -503 -13 -646 15 -145 58 -303 115 -422 94 -197 238 -332 424
-397 62 -22 95 -27 218 -31 158 -5 234 5 365 45 82 26 91 29 210 84 39 18 73
31 78 31 4 -1 7 3 7 8 0 6 4 10 9 10 8 0 65 30 150 81 28 16 180 119 196 132
6 4 45 35 89 67 81 62 227 187 331 284 33 30 62 56 65 56 3 0 30 -23 60 -51
107 -99 126 -116 220 -195 93 -77 108 -89 200 -157 183 -137 449 -281 618
-336 56 -18 104 -33 106 -33 3 0 28 -6 55 -13 72 -19 313 -20 394 -1 168 39
323 149 426 302 51 74 120 235 136 314 1 3 4 14 7 25 4 11 9 37 13 59 3 21 7
41 9 45 20 31 28 474 12 621 -13 121 -26 220 -32 255 -2 11 -7 34 -9 50 -11
60 -47 232 -61 285 -8 30 -14 57 -14 61 0 9 79 38 150 54 29 6 299 103 335
120 17 8 64 29 105 46 99 42 268 131 353 185 37 24 72 44 76 44 5 0 11 3 13 8
2 4 37 33 79 65 198 149 329 320 395 512 24 70 27 95 27 200 0 66 -2 127 -5
135 -2 8 -8 31 -12 50 -4 19 -11 44 -15 55 -5 11 -17 40 -27 65 -10 25 -44 83
-76 130 -114 172 -296 327 -545 468 -75 42 -276 142 -287 142 -3 0 -29 11 -58
24 -80 36 -428 160 -428 152 0 -2 -17 2 -37 9 -44 16 -44 18 -12 155 12 47 22
94 23 105 2 11 6 36 10 55 3 19 8 46 10 60 3 14 5 25 6 25 2 0 8 42 14 100 7
58 16 126 22 160 3 17 7 120 9 230 3 169 -3 285 -20 390 -13 80 -17 104 -25
130 -5 17 -17 55 -26 85 -9 30 -32 87 -51 125 -61 126 -83 157 -168 240 -81
81 -155 126 -270 166 -77 27 -86 28 -250 25 -93 -1 -179 -5 -190 -8 -11 -4
-33 -9 -50 -13 -136 -32 -359 -129 -518 -227 -85 -52 -293 -196 -319 -221 -7
-7 -33 -28 -58 -47 -25 -19 -50 -39 -56 -45 -6 -5 -42 -37 -79 -70 -38 -33
-94 -84 -124 -112 -31 -29 -58 -53 -61 -53 -3 0 -41 33 -84 74 -43 40 -96 89
-118 107 -22 18 -46 38 -52 44 -6 6 -49 41 -96 78 -47 38 -92 74 -102 82 -101
82 -445 282 -563 326 -11 4 -40 15 -65 24 -25 9 -56 19 -69 22 -14 2 -28 6
-33 9 -5 3 -18 7 -31 10 -12 2 -33 7 -47 10 -14 4 -99 9 -190 10 -150 3 -172
1 -240 -20z m390 -311 c129 -30 307 -108 447 -197 37 -24 75 -47 84 -53 126
-76 539 -422 539 -451 0 -5 -19 -30 -42 -54 -24 -25 -65 -72 -93 -105 -27 -32
-62 -72 -77 -88 -16 -17 -28 -33 -28 -36 0 -3 -18 -26 -40 -51 -22 -25 -44
-49 -48 -55 -47 -63 -108 -141 -112 -145 -3 -3 -17 -21 -30 -40 -13 -19 -27
-37 -30 -40 -3 -3 -22 -27 -41 -55 -18 -27 -40 -56 -46 -63 -7 -7 -16 -19 -20
-26 -7 -12 -33 -17 -163 -31 -59 -6 -137 -16 -160 -20 -14 -2 -47 -7 -75 -10
-27 -3 -61 -7 -75 -10 -14 -3 -43 -8 -65 -11 -22 -3 -47 -7 -55 -9 -8 -2 -37
-7 -65 -11 -27 -3 -57 -10 -66 -15 -9 -4 -18 -6 -21 -4 -4 4 -79 -10 -163 -31
-49 -11 -85 -15 -86 -7 -1 8 -2 15 -13 58 -12 48 -48 222 -51 247 -2 15 -6 35
-9 45 -2 10 -7 38 -10 63 -3 25 -8 54 -10 65 -27 137 -28 545 -2 665 1 8 6 33
10 55 4 22 10 47 13 55 3 8 7 21 9 27 4 21 38 108 43 113 4 3 15 22 25 43 27
53 105 131 157 157 96 49 224 58 369 25z m2896 5 c117 -38 189 -104 252 -230
42 -85 76 -208 89 -316 15 -125 7 -498 -13 -596 -2 -13 -7 -43 -10 -68 -10
-74 -12 -85 -14 -85 -1 0 -3 -11 -5 -25 -2 -14 -11 -59 -20 -100 -9 -41 -18
-84 -20 -95 -23 -104 -28 -116 -54 -111 -15 3 -80 16 -146 30 -66 14 -138 28
-160 30 -22 3 -50 8 -61 10 -12 2 -39 7 -60 11 -22 3 -50 7 -64 10 -14 2 -47
6 -75 10 -27 4 -63 8 -80 10 -16 2 -50 7 -75 10 -25 3 -61 7 -80 9 -19 3 -62
8 -95 11 -42 5 -63 12 -72 25 -8 11 -20 26 -28 34 -8 8 -15 17 -15 21 0 7 -77
112 -102 139 -10 11 -18 23 -18 26 0 4 -9 18 -21 31 -11 13 -29 34 -40 47 -10
12 -19 24 -19 27 0 3 -8 13 -17 23 -10 10 -31 35 -48 56 -16 21 -38 48 -48 60
-57 68 -110 130 -174 202 -40 45 -73 86 -73 90 0 7 52 57 154 147 33 29 64 57
70 62 6 6 34 29 61 51 28 21 57 45 65 52 62 54 329 232 349 232 5 0 11 3 13 8
8 19 256 126 313 135 11 1 25 6 31 9 6 4 33 10 60 14 27 3 50 7 52 9 9 8 163
-4 198 -15z m-1558 -977 c90 -101 144 -165 227 -268 124 -154 150 -187 153
-194 1 -3 -187 -6 -418 -6 -231 0 -420 2 -420 4 0 4 220 280 260 325 14 16 39
44 55 61 17 18 45 51 64 74 19 23 37 41 40 41 3 0 21 -17 39 -37z m482 -798
c52 -4 107 -8 122 -8 17 0 31 -9 39 -24 7 -13 16 -23 21 -23 4 0 8 -4 8 -9 0
-6 35 -63 78 -128 42 -66 82 -128 89 -139 83 -135 113 -187 113 -195 0 -5 4
-9 9 -9 5 0 11 -8 15 -17 3 -10 14 -31 23 -48 83 -138 296 -548 296 -569 0
-19 -195 -402 -250 -488 -12 -21 -23 -40 -23 -43 0 -3 -51 -88 -112 -191 -62
-102 -118 -193 -123 -202 -43 -70 -129 -198 -136 -200 -5 -2 -9 -10 -9 -18 0
-8 -3 -15 -7 -15 -164 -28 -1090 -32 -1304 -5 -14 1 -31 6 -38 10 -9 6 -144
208 -208 312 -33 53 -163 273 -179 304 -11 19 -21 37 -24 40 -3 3 -13 21 -24
40 -10 19 -40 76 -66 125 -27 50 -75 144 -108 209 l-60 119 17 36 c44 94 231
452 241 461 3 3 14 23 25 45 11 22 23 42 28 43 4 2 7 8 7 13 0 5 37 68 81 141
45 73 91 149 102 168 12 19 25 37 29 38 4 2 8 7 8 12 0 6 100 164 126 198 4 6
68 11 209 18 72 3 131 7 133 9 6 6 761 -4 852 -10z m623 -60 c18 -3 48 -7 67
-10 19 -3 49 -8 65 -10 111 -16 128 -18 185 -30 14 -3 50 -9 80 -15 96 -18
108 -20 173 -36 4 -1 11 -2 16 -3 16 -2 -45 -182 -161 -478 l-60 -153 -32 63
c-43 82 -103 190 -138 250 -15 26 -28 52 -28 57 0 6 -4 10 -10 10 -5 0 -9 3
-8 8 1 4 -5 18 -13 32 -99 158 -189 311 -189 320 0 6 5 8 10 5 6 -4 25 -8 43
-10z m-2288 -97 c-36 -57 -68 -108 -72 -114 -5 -5 -16 -26 -27 -45 -10 -19
-28 -50 -39 -69 -11 -19 -56 -98 -98 -175 -43 -77 -82 -145 -86 -150 -4 -6 -9
-17 -11 -24 -5 -23 -29 -53 -35 -44 -7 12 -101 249 -120 303 -107 304 -107
305 -86 312 10 4 31 9 46 12 16 2 28 5 28 6 0 1 9 3 20 4 11 2 34 6 50 10 40
9 72 15 115 21 20 3 47 8 60 11 14 3 43 7 65 10 22 3 76 11 120 18 148 26 144
32 70 -86z m-905 -93 c0 0 9 -28 21 -60 12 -33 23 -67 24 -75 8 -34 133 -371
166 -445 4 -11 29 -69 55 -130 25 -60 56 -132 69 -158 l23 -49 -45 -101 c-108
-247 -191 -462 -272 -702 -25 -73 -45 -119 -53 -119 -41 5 -117 28 -278 86
-163 58 -216 80 -365 153 -311 152 -521 326 -607 502 -40 83 -42 93 -43 179 0
87 2 94 43 177 34 69 61 105 130 175 101 102 111 110 217 180 44 29 85 56 91
61 14 12 318 161 328 161 4 0 22 7 39 15 40 18 137 56 157 61 8 2 49 15 90 29
175 59 210 70 210 60z m4287 -51 c316 -103 600 -239 792 -377 140 -102 268
-254 308 -367 35 -99 17 -261 -35 -322 -8 -10 -12 -18 -8 -18 4 0 2 -6 -4 -12
-5 -7 -29 -38 -53 -68 -105 -131 -273 -255 -511 -375 -77 -39 -157 -77 -176
-85 -19 -7 -48 -18 -65 -25 -79 -32 -250 -91 -335 -116 -71 -21 -96 -25 -102
-16 -4 7 -17 44 -29 82 -43 143 -176 490 -267 695 -30 69 -55 130 -55 135 0
10 43 112 87 210 40 86 152 375 191 490 20 61 41 119 45 130 8 18 22 60 26 78
1 4 2 9 3 12 2 8 40 -3 188 -51z m-3712 -1306 c15 -29 39 -75 54 -103 15 -27
39 -72 55 -100 15 -27 31 -57 36 -65 5 -8 55 -91 110 -184 56 -94 108 -179
116 -190 8 -11 14 -24 14 -27 0 -7 -52 -5 -118 5 -20 3 -55 8 -77 11 -23 3
-52 8 -65 10 -14 3 -38 7 -55 10 -16 3 -54 10 -83 16 -29 6 -65 12 -80 14 -53
8 -172 35 -172 40 0 1 6 18 14 36 8 19 15 39 16 44 3 12 1 6 35 110 15 44 32
94 39 110 7 17 32 80 55 140 50 132 69 175 76 175 2 0 16 -24 30 -52z m2993
45 c-1 -5 5 -24 13 -43 13 -29 112 -285 124 -320 1 -3 5 -12 8 -20 4 -8 22
-62 41 -120 38 -116 39 -112 -32 -125 -15 -3 -38 -7 -52 -10 -14 -3 -38 -8
-55 -11 -16 -2 -41 -7 -55 -9 -14 -3 -36 -7 -50 -10 -13 -2 -42 -7 -65 -10
-22 -3 -48 -8 -58 -11 -10 -3 -35 -8 -55 -10 -20 -2 -53 -6 -72 -9 -19 -3 -57
-7 -83 -10 l-48 -4 19 27 c23 32 202 326 220 362 7 14 31 57 52 95 22 39 61
109 86 158 25 48 50 87 55 87 5 0 8 -3 7 -7z m-3217 -948 c180 -36 219 -44
269 -50 25 -3 52 -8 60 -10 8 -3 35 -7 60 -9 25 -3 56 -8 70 -11 14 -3 48 -7
75 -10 28 -2 62 -7 77 -10 14 -3 52 -7 85 -10 105 -9 129 -12 149 -19 10 -3
39 -37 64 -74 25 -37 48 -69 51 -72 3 -3 32 -41 65 -85 32 -44 61 -82 64 -85
3 -3 23 -27 45 -55 72 -90 231 -279 288 -339 l54 -59 -31 -31 c-29 -29 -195
-178 -224 -201 -7 -5 -21 -17 -30 -26 -48 -46 -278 -210 -357 -255 -93 -54
-191 -104 -202 -104 -7 0 -13 -5 -13 -12 0 -6 -3 -9 -6 -5 -4 3 -18 0 -33 -7
-14 -8 -60 -25 -102 -39 -169 -57 -334 -56 -450 3 -53 27 -130 107 -159 165
-14 28 -27 52 -30 55 -11 9 -71 221 -69 238 1 4 0 9 -1 12 -14 35 -21 406 -9
510 15 141 24 202 39 285 17 90 19 100 24 125 10 43 18 89 17 95 0 2 6 23 14
45 15 41 15 43 15 60 0 13 -13 14 131 -15z m3534 -3 c4 -15 9 -38 12 -52 8
-39 9 -44 16 -65 3 -11 8 -36 11 -55 3 -19 8 -46 12 -60 3 -14 7 -36 9 -50 2
-14 6 -38 9 -55 9 -46 15 -86 21 -130 3 -22 8 -56 11 -75 2 -19 6 -125 8 -235
6 -297 -22 -456 -108 -620 -179 -342 -624 -285 -1211 155 -71 54 -139 106
-150 116 -12 11 -59 53 -105 94 -101 88 -140 127 -140 137 0 5 17 26 38 48 20
22 64 72 97 110 33 39 62 72 65 75 28 25 374 473 405 524 6 10 28 18 60 21 28
2 68 6 90 9 22 3 65 7 95 10 30 3 73 8 95 12 22 4 49 8 60 9 31 3 115 15 170
25 28 5 66 11 85 14 19 3 67 12 105 20 39 8 86 17 105 20 19 3 48 9 64 14 53
15 64 12 71 -16z m-1415 -162 c0 -3 -10 -17 -23 -31 -12 -15 -50 -63 -84 -106
-35 -44 -71 -89 -80 -100 -10 -11 -36 -42 -58 -69 -36 -43 -83 -97 -153 -173
l-23 -25 -40 45 c-83 92 -105 117 -208 244 -58 72 -109 135 -113 140 -4 6 -19
24 -33 41 -14 18 -25 33 -25 35 0 2 189 4 420 4 231 0 420 -2 420 -5z"/>
<path d="M3590 4327 c-3 -3 -21 -7 -40 -10 -48 -7 -126 -35 -180 -64 -208
-115 -337 -324 -344 -558 -11 -332 244 -632 569 -670 316 -38 607 145 708 446
33 98 41 231 19 331 -7 35 -14 69 -16 75 -1 7 -22 51 -45 98 -79 155 -221 276
-381 324 -19 6 -49 14 -65 19 -31 10 -217 16 -225 9z"/>
</g>
</svg>
