<?xml version="1.0" standalone="no"?>
<!DOCTYPE svg PUBLIC "-//W3C//DTD SVG 20010904//EN"
 "http://www.w3.org/TR/2001/REC-SVG-20010904/DTD/svg10.dtd">
<svg version="1.0" xmlns="http://www.w3.org/2000/svg"
 width="640.000000pt" height="640.000000pt" viewBox="0 0 640.000000 640.000000"
 preserveAspectRatio="xMidYMid meet">
<metadata>
Created by potrace 1.14, written by Peter Selinger 2001-2017
</metadata>
<g transform="translate(0.000000,640.000000) scale(0.100000,-0.100000)"
fill="#000000" stroke="none">
<path d="M3090 5740 c-30 -11 -56 -25 -58 -30 -2 -6 -9 -10 -15 -10 -7 0 -24
-12 -38 -27 -27 -29 -169 -241 -169 -253 0 -3 -8 -15 -19 -26 -10 -11 -24 -31
-31 -44 -7 -13 -45 -74 -85 -135 -39 -60 -74 -118 -78 -127 -3 -10 -11 -18
-16 -18 -5 0 -11 -10 -15 -22 -3 -13 -16 -35 -30 -49 -14 -15 -22 -30 -19 -33
4 -3 1 -6 -5 -6 -7 0 -12 -5 -12 -10 0 -9 -73 -127 -129 -209 -21 -31 -27 -40
-86 -132 -134 -208 -187 -291 -237 -369 -29 -47 -56 -86 -60 -88 -5 -2 -8 -8
-8 -13 0 -5 -15 -31 -32 -57 -18 -26 -37 -55 -43 -65 -5 -9 -57 -89 -115 -178
-58 -90 -107 -167 -109 -173 -2 -6 -12 -19 -23 -30 -10 -11 -18 -25 -18 -32 0
-7 -3 -14 -7 -16 -5 -1 -26 -32 -47 -68 -22 -36 -43 -67 -48 -68 -4 -2 -8 -7
-8 -12 0 -8 -100 -165 -119 -187 -6 -7 -11 -14 -11 -17 0 -5 -34 -58 -175
-276 -34 -52 -64 -103 -68 -112 -3 -10 -11 -18 -17 -18 -5 0 -10 -4 -10 -10 0
-5 -34 -61 -75 -125 -41 -63 -75 -118 -75 -121 0 -2 -5 -10 -11 -17 -5 -7 -39
-57 -74 -112 -36 -55 -69 -107 -75 -115 -6 -8 -30 -46 -54 -85 -25 -38 -50
-75 -55 -82 -6 -7 -11 -15 -11 -18 0 -9 -74 -120 -82 -123 -5 -2 -8 -8 -8 -14
0 -6 -11 -26 -25 -44 -14 -18 -25 -37 -25 -42 0 -6 -4 -12 -8 -14 -4 -2 -26
-32 -47 -68 -22 -36 -43 -69 -47 -75 -18 -23 -118 -178 -118 -183 0 -3 -11
-20 -25 -38 -14 -18 -25 -37 -25 -41 0 -5 -8 -18 -18 -29 -10 -10 -31 -41 -46
-69 -16 -27 -32 -52 -36 -55 -3 -3 -24 -34 -45 -70 -21 -36 -41 -67 -44 -70
-18 -16 -80 -131 -90 -167 -16 -57 -7 -162 19 -217 30 -62 92 -125 155 -156
l50 -25 2945 -3 c2936 -2 2945 -2 3005 18 74 25 142 85 181 160 25 47 29 66
29 135 0 52 -6 94 -16 120 -15 35 -71 128 -98 161 -4 5 -14 21 -21 34 -14 26
-125 199 -138 215 -4 6 -19 28 -32 50 -23 38 -125 198 -166 259 -10 16 -28 43
-39 61 -81 130 -161 251 -167 253 -5 2 -8 8 -8 14 0 6 -11 26 -25 44 -14 18
-29 44 -35 58 -5 14 -14 26 -19 26 -5 0 -11 8 -15 18 -3 9 -15 31 -26 47 -11
17 -25 40 -31 53 -7 12 -16 22 -21 22 -4 0 -8 4 -8 10 0 8 -106 178 -128 205
-4 6 -26 38 -47 73 -22 35 -47 73 -55 86 -8 13 -28 45 -45 72 -16 27 -37 58
-47 68 -10 11 -18 24 -18 29 0 5 -17 34 -39 65 -21 32 -54 82 -73 112 -19 30
-60 94 -91 142 -32 47 -57 89 -57 92 0 4 -9 16 -20 28 -11 12 -20 28 -20 35 0
7 -4 13 -10 13 -5 0 -10 7 -10 15 0 8 -4 15 -8 15 -5 0 -15 12 -22 28 -8 15
-29 48 -47 75 -18 26 -33 49 -33 51 0 4 -45 75 -80 126 -6 8 -45 69 -87 135
-43 66 -81 122 -85 123 -5 2 -8 8 -8 14 0 6 -24 46 -52 91 -29 44 -76 117
-105 161 -28 45 -56 86 -62 93 -6 7 -11 15 -11 19 0 4 -11 22 -25 40 -14 18
-29 44 -35 58 -5 14 -14 26 -19 26 -5 0 -11 8 -15 18 -3 9 -15 31 -26 47 -11
17 -25 40 -31 53 -7 12 -16 22 -21 22 -4 0 -8 4 -8 9 0 9 -104 178 -127 206
-22 27 -153 238 -153 245 0 5 -3 10 -8 12 -4 2 -39 53 -77 113 -103 163 -153
239 -164 252 -6 7 -11 15 -11 18 0 3 -23 41 -51 83 -70 106 -115 144 -204 177
-48 18 -150 15 -205 -5z m124 -913 c7 -7 15 -17 17 -23 2 -6 38 -64 79 -128
41 -64 112 -174 157 -244 45 -70 86 -132 92 -139 6 -7 11 -15 11 -19 0 -4 11
-22 25 -40 14 -18 29 -44 35 -58 5 -14 14 -26 19 -26 5 0 11 -8 15 -17 3 -10
14 -29 23 -43 10 -14 27 -40 38 -58 35 -58 144 -227 152 -237 8 -10 155 -241
166 -261 6 -10 -30 -16 -93 -15 -8 0 -55 0 -105 0 -49 0 -97 0 -105 0 -43 2
-105 -1 -111 -5 -4 -2 -10 0 -13 4 -3 5 -26 6 -52 2 -25 -4 -60 -4 -77 0 -18
3 -49 3 -69 0 -20 -4 -42 -4 -48 0 -6 4 -29 4 -50 0 -22 -4 -42 -5 -45 -1 -3
3 -22 4 -41 2 -32 -2 -69 -36 -355 -322 l-319 -319 -190 190 -190 190 42 68
c23 37 46 69 50 70 4 2 8 8 8 14 0 5 10 24 23 41 12 18 27 41 34 52 48 79 108
171 115 173 4 2 8 8 8 13 0 6 8 22 19 37 10 15 40 61 66 102 27 41 70 109 97
150 27 41 53 82 58 90 6 8 30 47 54 85 25 39 50 75 55 82 6 7 11 15 11 19 0 3
10 20 23 37 12 17 27 39 32 48 43 74 90 145 97 147 4 2 8 7 8 12 0 5 23 43 50
84 28 42 50 80 50 86 0 6 7 13 15 16 8 4 15 10 15 15 0 9 49 89 61 99 3 3 8
13 12 23 8 20 14 21 31 4z"/>
</g>
</svg>
